PathFileType	4	(X/Y/Z)	pose_F01_0-71.trc
DataRate	CameraRate	NumFrames	NumMarkers	Units	OrigDataRate	OrigDataStartFrame	OrigNumFrames
30	30	11	21	m	30	0	71
Frame#	Time	CHip			RHip			RKnee			RAnkle			RBigToe			RSmallToe			RHeel			LHip			LKnee			LAnkle			LBigToe			LSmallToe			LHeel			Neck			Nose			RShoulder			RElbow			RWrist			LShoulder			LElbow			LWrist			
		X1	Y1	Z1	X2	Y2	Z2	X3	Y3	Z3	X4	Y4	Z4	X5	Y5	Z5	X6	Y6	Z6	X7	Y7	Z7	X8	Y8	Z8	X9	Y9	Z9	X10	Y10	Z10	X11	Y11	Z11	X12	Y12	Z12	X13	Y13	Z13	X14	Y14	Z14	X15	Y15	Z15	X16	Y16	Z16	X17	Y17	Z17	X18	Y18	Z18	X19	Y19	Z19	X20	Y20	Z20	X21	Y21	Z21	
0	0.0	-0.23451093757529762	1.8790530042896283	-0.5128327560177146	-0.253486361257142	1.875281976080708	-0.4600570528757535	-0.24250552642738651	1.7386151446958087	-0.48420687956360114													-0.2218639759079709	1.8869523086809012	-0.5653275646550446	-0.2160275291493627	1.748795238485572	-0.5848340369574984	-0.20798804698286955	1.5959442033481457	-0.5605445852488151	-0.21466144409724397	1.5552147894193875	-0.6322185613733489	-0.2024023899204707	1.566249320287289	-0.6369889767612489	-0.20916477048972001	1.6000479202585927	-0.5487245952072881	-0.24213710224418084	2.0511184167893353	-0.5065647081619551	-0.24878977357283782	2.109158920176768	-0.5837323489613786	-0.26926681167873734	2.045389469540665	-0.43291561651288873	-0.2689685626201414	1.962907661189651	-0.4517565528856076	-0.23573252162363495	1.9323069155503434	-0.5824134001826338	-0.2144714960689877	2.059509898843126	-0.5849298776416093	-0.10569282882500394	2.0430051154316167	-0.7469887510796936	-0.19156445348360907	2.018351358960693	-0.6195561061791841
1	0.03333333333333333	-0.23628461211738186	1.8827128330170328	-0.5110819649212897	-0.2543545649251795	1.8780009763224128	-0.4552563428037081	-0.24250552642738651	1.7386151446958087	-0.48420687956360114													-0.22194412752716544	1.890538585206861	-0.5657575688296858	-0.21649080838945317	1.7485001534946254	-0.582430830601253	-0.20807313895304974	1.594822244915094	-0.5603672950271035	-0.2127425634744254	1.5538640717993335	-0.6339181414454339	-0.20121340245887864	1.5664497283311236	-0.6423441249852947	-0.20916477048972001	1.6000479202585927	-0.5487245952072881	-0.2420620899830458	2.052210546050294	-0.5064157476586719	-0.24979921965519325	2.1089927311557517	-0.5785680467294374	-0.26828222318810313	2.045287757249281	-0.4299340991192798	-0.26902557909330876	1.9636226020083758	-0.4519177838964279	-0.23767480905355537	1.9309661212943379	-0.5797254845431042	-0.21650548830550215	2.0603227288328494	-0.5833276718477093	-0.12227637623156629	2.0400676198086836	-0.7259171029259334	-0.1912383025521159	2.0189665266277785	-0.6289964850425316
2	0.06666666666666667	-0.2380582866594661	1.8863726617444374	-0.5093311738248647	-0.25522276859321696	1.8807199765641176	-0.45045563273166267	-0.24250552642738651	1.7386151446958087	-0.48420687956360114													-0.22202427914635997	1.8941248617328208	-0.5661875730043269	-0.2169540876295436	1.7482050685036787	-0.5800276242450076	-0.20815823092322994	1.5937002864820422	-0.5601900048053918	-0.21082368285160685	1.5525133541792795	-0.6356177215175189	-0.2000244149972866	1.5666501363749583	-0.6476992732093405	-0.20916477048972001	1.6000479202585927	-0.5487245952072881	-0.24198707772191075	2.0533026753112527	-0.5062667871553888	-0.2508086657375487	2.1088265421347354	-0.5734037444974962	-0.2672976346974689	2.045186044957897	-0.4269525817256709	-0.2690825955664761	1.9643375428271006	-0.45207901490724817	-0.2396170964834758	1.9296253270383323	-0.5770375689035747	-0.2185394805420166	2.061135558822573	-0.5817254660538093	-0.13885992363812863	2.0371301241857505	-0.7048454547721731	-0.19091215162062275	2.019581694294864	-0.6384368639058791
3	0.1	-0.23825889621585686	1.8889639827692273	-0.5097583782202976	-0.2553207075307772	1.8821159012045139	-0.4506855219153526	-0.24250552642738651	1.7386151446958087	-0.48420687956360114													-0.22122211446221576	1.8949132933546229	-0.5633750332807109	-0.21741736686963406	1.747909983512732	-0.5776244178887623	-0.20824332289341013	1.5925783280489902	-0.5600127145836803	-0.2110107850168224	1.5540304928748392	-0.6352723436093899	-0.19899394714511293	1.5663277191267837	-0.6445747096381799	-0.20916477048972001	1.6000479202585927	-0.5487245952072881	-0.24296482888946405	2.0529239656816913	-0.5010366710991292	-0.2507869524570524	2.108957104773249	-0.5733258423899253	-0.26917244808299157	2.045157472721463	-0.42473861386775436	-0.26890111887111107	1.963202481520627	-0.45130002145010095	-0.24174112541293544	1.9322045078952548	-0.5749993846776339	-0.21851180142622734	2.06212584800931	-0.5814481694031057	-0.15544347104469097	2.0341926285628174	-0.6837738066184128	-0.1905860006891296	2.0201968619619493	-0.6478772427692265
4	0.13333333333333333	-0.2381837213431634	1.8876231667429513	-0.5094306472660791	-0.25510028275309743	1.8822407319564234	-0.45051165265812615	-0.24250552642738651	1.7386151446958087	-0.48420687956360114													-0.22113242912498976	1.8938112442278796	-0.563053624893248	-0.21788064610972452	1.7476148985217852	-0.5752212115325169	-0.20832841486359033	1.5914563696159383	-0.5598354243619688	-0.21010716217206665	1.5540711245044652	-0.6321256615550982	-0.19899435403334906	1.566337653562587	-0.6445864421856334	-0.20916477048972001	1.6000479202585927	-0.5487245952072881	-0.24404158841446308	2.0536463824309372	-0.4960978373295194	-0.24898033455082388	2.1085775644321614	-0.5672398828523119	-0.269233437412215	2.0464532720644284	-0.4251891737096543	-0.27099907757661673	1.96328791483082	-0.4494554214799306	-0.23875493556192295	1.9299330296350794	-0.5739249987218407	-0.21868205043258293	2.062333801777167	-0.572925255050727	-0.17202701845125332	2.0312551329398842	-0.6627021584646525	-0.18655308708494026	2.0256772588344067	-0.6739666500227606
5	0.16666666666666666	-0.24042852009329913	1.885457587016625	-0.5069922988821669	-0.2554917032163836	1.8818046155827235	-0.4504205569054176	-0.24250552642738651	1.7386151446958087	-0.48420687956360114													-0.22146797049734093	1.8911642754525873	-0.5627536848400839	-0.21834392534981498	1.7473198135308385	-0.5728180051762716	-0.20841350683377052	1.5903344111828865	-0.5596581341402571	-0.211613560492	1.5537540022156828	-0.6348453152972693	-0.20045889598510433	1.5659976565713	-0.6471877286628847	-0.20916477048972001	1.6000479202585927	-0.5487245952072881	-0.24313088507998518	2.05214602308487	-0.4926038169001829	-0.2500018265803875	2.1083140556265505	-0.5621549576333928	-0.27101481667774285	2.0451142604629995	-0.4223907550846374	-0.27195610498844686	1.9628023563764632	-0.4442925223490519	-0.2418472892453129	1.9309277706985082	-0.5749579604619024	-0.21973673797291612	2.060906191161507	-0.576104027607418	-0.18861056585781566	2.028317637316951	-0.6416305103108922	-0.18363426364591326	2.0238436116858565	-0.6827818435416563
6	0.2	-0.23962121055358968	1.8866267323132153	-0.504148350764704	-0.2556173794529962	1.8830249332711007	-0.4505774123542158	-0.24250552642738651	1.7386151446958087	-0.48420687956360114													-0.2215327882775973	1.8920391644545866	-0.5628903105889284	-0.21880720458990544	1.7470247285398919	-0.5704147988200262	-0.20830667717246262	1.591287093648357	-0.5598201530165848	-0.21327338012575198	1.5542161029619301	-0.6330457754885689	-0.1991417822805798	1.5667224151440686	-0.6445188024622238	-0.20916477048972001	1.6000479202585927	-0.5487245952072881	-0.2450968707803094	2.050900493156565	-0.4905020633286167	-0.24919411154468943	2.106313196063415	-0.5585115143941295	-0.2699969511408762	2.04369637850203	-0.4187123755510996	-0.2738472637555452	1.965211971556109	-0.44241628521494714	-0.2423952412476598	1.9339603189803625	-0.5587664282363566	-0.21894005739270384	2.0590116203946054	-0.5732599646554177	-0.1782258434598856	2.0141541105564995	-0.6505618100293438	-0.19412718678494228	2.018426856730187	-0.6791583999572001
7	0.23333333333333334	-0.24162104658161856	1.8862981207461686	-0.5019299025602347	-0.2556416861477479	1.8824685939359629	-0.4505545782210318	-0.24250552642738651	1.7386151446958087	-0.48420687956360114													-0.22359244048575014	1.8915521323397015	-0.5606181056642956	-0.2192704838299959	1.746729643548945	-0.5680115924637809	-0.20819984751115472	1.5922397761138274	-0.5599821718929126	-0.21113068324982315	1.5542878515346819	-0.6351969923274273	-0.20011676913534238	1.564614643538526	-0.6471400771424888	-0.20916477048972001	1.6000479202585927	-0.5487245952072881	-0.24702765186060557	2.049693956251493	-0.4878553122492324	-0.25115513931476174	2.1074407560471813	-0.5568522246419246	-0.2717880243130773	2.0424178253075524	-0.4160514774291487	-0.27396635271080216	1.9626382978800185	-0.4419962455634085	-0.24211949655784365	1.934646994560015	-0.567076651934832	-0.221831744047425	2.0568462199202346	-0.5731572203600095	-0.19209787559835223	2.001339989221346	-0.6575666234005072	-0.21746478569798322	2.0040158410490725	-0.6785217556228476
8	0.26666666666666666	-0.2411790902863634	1.8829903954002574	-0.5012016385654653	-0.25614333629236663	1.880711813602762	-0.44475436296209775	-0.24250552642738651	1.7386151446958087	-0.48420687956360114													-0.22327880833275734	1.889592258530041	-0.5602516210937135	-0.21973376307008635	1.7464345585579983	-0.5656083861075355	-0.20806866936608906	1.5919978337221043	-0.5592139877707266	-0.21134664513881715	1.5554974630851268	-0.6350491515630501	-0.19994036656396605	1.566301330263285	-0.6477606492441107	-0.20916477048972001	1.6000479202585927	-0.5487245952072881	-0.2471512078365469	2.047381776087194	-0.48730427345728217	-0.25225197708382485	2.107057125679458	-0.5517301844696532	-0.270827797882512	2.0435388374538115	-0.4133601074161792	-0.27569850069028123	1.9582369043429355	-0.4383403031203263	-0.24533876241673347	1.9331795184595393	-0.559453905141868	-0.22481446862295973	2.0542297462884163	-0.573575200559715	-0.20998462606694193	1.9988423962035509	-0.6523354700506394	-0.23172746158174198	1.9966964605247988	-0.6963038999420009
9	0.3	-0.2433826031984394	1.8891422598241037	-0.4995711323118417	-0.25706612100689114	1.886425613250197	-0.4399059575667352	-0.24250552642738651	1.7386151446958087	-0.48420687956360114													-0.2244998191718686	1.8931157997261825	-0.555505513775192	-0.22019704231017678	1.7461394735670517	-0.5632051797512901	-0.20793749122102342	1.5917558913303813	-0.5584458036485407	-0.21112924077588835	1.554229218737491	-0.6352732616228781	-0.19997405695277048	1.5663153510915055	-0.6477145636926407	-0.20916477048972001	1.6000479202585927	-0.5487245952072881	-0.24899216028355467	2.0460577328820415	-0.48452523349272614	-0.2542553391906859	2.1056910034553087	-0.5488560459895466	-0.2695077383678739	2.0417173326141302	-0.40123825760594556	-0.2753806697406475	1.959865913710315	-0.42161699420655396	-0.2444012670326985	1.9313145775490281	-0.5557568474361575	-0.22392992888375168	2.0529085728632217	-0.5700868359644378	-0.2099555008070082	2.0055781654203675	-0.6531718254882593	-0.24724922835956167	1.983400458348977	-0.6983533163814042
10	0.3333333333333333	-0.24624150213331686	1.8877059935693241	-0.4918584250341029	-0.2599175680093596	1.8831040032867812	-0.43182519962416605	-0.24250552642738651	1.7386151446958087	-0.48420687956360114													-0.22840230350966184	1.8922666888713806	-0.550821167809544	-0.22066032155026724	1.745844388576105	-0.5608019733950448	-0.20780631307595776	1.5915139489386583	-0.5576776195263546	-0.2122538383785695	1.55398631686041	-0.6299148945051323	-0.19896319173971647	1.5659052463845966	-0.6444779576357378	-0.20916477048972001	1.6000479202585927	-0.5487245952072881	-0.2489939589260186	2.0459859998837087	-0.48439916590949333	-0.25625784097203225	2.1069331671519356	-0.5472342001132879	-0.2683997430226379	2.040266467853034	-0.3974586234774583	-0.2742391541081497	1.9582650444564613	-0.4178961238450884	-0.24749584835647925	1.9331729709160332	-0.5484730454651735	-0.22394798507290828	2.0528677008827807	-0.5700227348804275	-0.21218480060484068	2.0083201553734686	-0.6515558955510461	-0.2520956195592863	1.9756587835622297	-0.6932573377334602
